<svg width="32" height="32" viewBox="0 0 32 32" xmlns="http://www.w3.org/2000/svg">
  <!-- Background circle with gradient -->
  <defs>
    <linearGradient id="bgGradient" x1="0%" y1="0%" x2="100%" y2="100%">
      <stop offset="0%" style="stop-color:#059669;stop-opacity:1" />
      <stop offset="100%" style="stop-color:#047857;stop-opacity:1" />
    </linearGradient>
    <linearGradient id="qrGradient" x1="0%" y1="0%" x2="100%" y2="100%">
      <stop offset="0%" style="stop-color:#ffffff;stop-opacity:1" />
      <stop offset="100%" style="stop-color:#f0fdf4;stop-opacity:1" />
    </linearGradient>
  </defs>
  
  <!-- Background -->
  <circle cx="16" cy="16" r="16" fill="url(#bgGradient)"/>
  
  <!-- QR Code pattern -->
  <g fill="url(#qrGradient)">
    <!-- Corner squares -->
    <rect x="6" y="6" width="6" height="6" rx="1"/>
    <rect x="20" y="6" width="6" height="6" rx="1"/>
    <rect x="6" y="20" width="6" height="6" rx="1"/>
    
    <!-- Inner corner dots -->
    <rect x="8" y="8" width="2" height="2" fill="#059669"/>
    <rect x="22" y="8" width="2" height="2" fill="#059669"/>
    <rect x="8" y="22" width="2" height="2" fill="#059669"/>
    
    <!-- Data pattern -->
    <rect x="14" y="8" width="1.5" height="1.5"/>
    <rect x="16" y="8" width="1.5" height="1.5"/>
    <rect x="14" y="10" width="1.5" height="1.5"/>
    <rect x="18" y="10" width="1.5" height="1.5"/>
    
    <rect x="8" y="14" width="1.5" height="1.5"/>
    <rect x="10" y="14" width="1.5" height="1.5"/>
    <rect x="14" y="14" width="1.5" height="1.5"/>
    <rect x="16" y="14" width="1.5" height="1.5"/>
    <rect x="18" y="14" width="1.5" height="1.5"/>
    
    <rect x="14" y="16" width="1.5" height="1.5"/>
    <rect x="18" y="16" width="1.5" height="1.5"/>
    
    <rect x="14" y="18" width="1.5" height="1.5"/>
    <rect x="16" y="18" width="1.5" height="1.5"/>
    <rect x="22" y="18" width="1.5" height="1.5"/>
    
    <rect x="14" y="22" width="1.5" height="1.5"/>
    <rect x="18" y="22" width="1.5" height="1.5"/>
    <rect x="22" y="22" width="1.5" height="1.5"/>
    <rect x="24" y="22" width="1.5" height="1.5"/>
  </g>
  
  <!-- Subtle highlight -->
  <circle cx="16" cy="16" r="15" fill="none" stroke="rgba(255,255,255,0.2)" stroke-width="0.5"/>
</svg>